#N canvas -7 0 1278 980 12;
#X obj 1192 749 netsend -u -b;
#X msg 1300 712 connect 127.0.0.1 8001;
#X msg 1197 521 1;
#X obj 1188 560 oscformat -f f play;
#X obj 1350 560 oscformat -f -f stop;
#X msg 1362 519 1;
#X obj 1304 678 oscformat -f f master volume;
#X text 1508 677 /master/volume 0.0-1.0;
#X text 1399 519 pour arreter;
#X text 1226 521 pour commencer;
#X text 1467 712 pour connecter osc à l'ordi (reaper);
#X msg 1398 639 0.5;
#X obj 1345 611 nbx 5 17 -1e+37 1e+37 0 0 empty empty empty 0 -10 0 12 #fcfcfc #000000 #000000 0 256;
#X obj 1521 596 hsl 162 19 0 1 0 0 empty empty empty -2 -10 0 12 #fcfcfc #000000 #000000 0 1;
#X msg 513 39 devices;
#X msg 608 43 close;
#X obj 626 123 comport;
#X msg 689 48 baud 115200 \, open 4;
#X obj 629 195 pdchoco/slip_parse;
#X obj 629 251 oscparse;
#X obj 628 294 list trim;
#X obj 628 334 route bouton angle;
#X obj 701 399 nbx 5 17 -1e+37 1e+37 0 0 empty empty empty 0 -10 0 12 #fcfcfc #000000 #000000 0 256;
#X obj 618 411 tgl 19 0 empty empty empty 0 -10 0 12 #fcfcfc #000000 #000000 0 1;
#X msg 1235 374 0;
#X msg 1307 379 1;
#X obj 1245 422 select 0 1;
#X obj 1291 470 bng 19 250 50 0 empty empty empty 0 -10 0 12 #fcfcfc #000000 #000000;
#X obj 1245 472 bng 19 250 50 0 empty empty empty 0 -10 0 12 #fcfcfc #000000 #000000;
#X obj 1176 379 tgl 19 0 empty empty empty 0 -10 0 12 #fcfcfc #000000 #000000 0 1;
#X obj 654 479 change;
#X text 709 479 transforme le flux en évènement;
#X text 622 669 interrupteur;
#X text 779 400 nombre 2;
#X text 1320 469 bang;
#X text 1205 470 bang;
#X text 1690 596 slider;
#X text 649 511 Lien direct;
#X obj 633 616 change;
#X text 713 622 transforme le flux en évènement;
#X obj 633 578 pdchoco/stream_flip_flop;
#X obj 632 644 tgl 19 0 empty empty empty 0 -10 0 12 #fcfcfc #000000 #000000 0 1;
#X text 655 647 LIEN FLIP FLOP/TOGGLE;
#X obj 1119 279 oscformat -f i vkb_midi 0 note 60;
#X text 1101 322 message OSC pour le virtual MIDI Keyboard;
#X msg 1146 211 127;
#X msg 1236 216 0;
#X text 1273 216 volume;
#X obj 930 706 nbx 5 17 -1e+37 1e+37 0 0 empty empty empty 0 -10 0 12 #fcfcfc #000000 #000000 0 256;
#X text 916 837 message osc pr la frequence du midi;
#X obj 921 809 oscformat -f i vkb_midi 0 cc 9;
#X obj 996 536 * 127;
#X obj 993 565 / 4095;
#X obj 973 647 pdchoco/stream_smooth 0.01 0.01;
#X obj 668 794 pdchoco/scope 0 127;
#X connect 1 0 0 0;
#X connect 2 0 3 0;
#X connect 3 0 0 0;
#X connect 4 0 0 0;
#X connect 5 0 4 0;
#X connect 6 0 0 0;
#X connect 11 0 6 0;
#X connect 12 0 6 0;
#X connect 13 0 12 0;
#X connect 14 0 16 0;
#X connect 15 0 16 0;
#X connect 16 0 18 0;
#X connect 17 0 16 0;
#X connect 18 0 19 0;
#X connect 19 0 20 0;
#X connect 20 0 21 0;
#X connect 21 0 23 0;
#X connect 21 1 22 0;
#X connect 22 0 51 0;
#X connect 23 0 30 0;
#X connect 23 0 40 0;
#X connect 24 0 26 0;
#X connect 25 0 26 0;
#X connect 26 0 28 0;
#X connect 26 1 27 0;
#X connect 27 0 5 0;
#X connect 28 0 2 0;
#X connect 29 0 26 0;
#X connect 30 0 29 0;
#X connect 38 0 41 0;
#X connect 40 0 38 0;
#X connect 41 0 29 0;
#X connect 43 0 0 0;
#X connect 45 0 43 0;
#X connect 46 0 43 0;
#X connect 48 0 50 0;
#X connect 50 0 0 0;
#X connect 51 0 52 0;
#X connect 52 0 53 0;
#X connect 53 0 48 0;
#X connect 53 0 54 0;
